<mxfile host="app.diagrams.net" agent="Mozilla/5.0 (Windows NT 10.0; Win64; x64) AppleWebKit/537.36 (KHTML, like Gecko) Chrome/131.0.0.0 Safari/537.36" version="25.0.1">
  <diagram id="C5RBs43oDa-KdzZeNtuy" name="Page-1">
    <mxGraphModel dx="1156" dy="459" grid="1" gridSize="10" guides="1" tooltips="1" connect="1" arrows="1" fold="1" page="1" pageScale="1" pageWidth="827" pageHeight="1169" math="0" shadow="0">
      <root>
        <mxCell id="WIyWlLk6GJQsqaUBKTNV-0" />
        <mxCell id="WIyWlLk6GJQsqaUBKTNV-1" parent="WIyWlLk6GJQsqaUBKTNV-0" />
        <mxCell id="S3Lzj9ECWROEKGPYJ3Kx-0" value="&lt;h1 style=&quot;margin-top: 0px;&quot;&gt;&lt;span style=&quot;background-color: initial;&quot;&gt;Problem 5&lt;/span&gt;&lt;/h1&gt;&lt;div&gt;&lt;span style=&quot;background-color: initial;&quot;&gt;STEP 1 : ASK THE USER TO ENTER FIRST NAME&lt;/span&gt;&lt;/div&gt;&lt;div&gt;STEP 2 : ASK THE USER TO ENTER LAST NAME&amp;nbsp;&lt;/div&gt;&lt;div&gt;STEP 3 : FULL NAME = &quot;FIRST NAME&quot; + &quot;&amp;nbsp; &quot; + LAST NAME&quot;&lt;/div&gt;&lt;div&gt;STEP 4 : PRINT &quot;FULL NAME&quot;&lt;/div&gt;" style="text;html=1;whiteSpace=wrap;overflow=hidden;rounded=0;" vertex="1" parent="WIyWlLk6GJQsqaUBKTNV-1">
          <mxGeometry x="30" y="20" width="990" height="130" as="geometry" />
        </mxCell>
        <mxCell id="S3Lzj9ECWROEKGPYJ3Kx-7" style="edgeStyle=orthogonalEdgeStyle;rounded=0;orthogonalLoop=1;jettySize=auto;html=1;exitX=0.5;exitY=1;exitDx=0;exitDy=0;exitPerimeter=0;entryX=0.5;entryY=0;entryDx=0;entryDy=0;" edge="1" parent="WIyWlLk6GJQsqaUBKTNV-1" source="S3Lzj9ECWROEKGPYJ3Kx-1" target="S3Lzj9ECWROEKGPYJ3Kx-2">
          <mxGeometry relative="1" as="geometry" />
        </mxCell>
        <mxCell id="S3Lzj9ECWROEKGPYJ3Kx-1" value="START" style="strokeWidth=2;html=1;shape=mxgraph.flowchart.start_1;whiteSpace=wrap;" vertex="1" parent="WIyWlLk6GJQsqaUBKTNV-1">
          <mxGeometry x="410" y="150" width="100" height="60" as="geometry" />
        </mxCell>
        <mxCell id="S3Lzj9ECWROEKGPYJ3Kx-8" style="edgeStyle=orthogonalEdgeStyle;rounded=0;orthogonalLoop=1;jettySize=auto;html=1;exitX=0.5;exitY=1;exitDx=0;exitDy=0;entryX=0.5;entryY=0;entryDx=0;entryDy=0;" edge="1" parent="WIyWlLk6GJQsqaUBKTNV-1" source="S3Lzj9ECWROEKGPYJ3Kx-2" target="S3Lzj9ECWROEKGPYJ3Kx-3">
          <mxGeometry relative="1" as="geometry" />
        </mxCell>
        <mxCell id="S3Lzj9ECWROEKGPYJ3Kx-2" value="READ FIRST NAME&amp;nbsp;" style="shape=parallelogram;html=1;strokeWidth=2;perimeter=parallelogramPerimeter;whiteSpace=wrap;rounded=1;arcSize=12;size=0.23;" vertex="1" parent="WIyWlLk6GJQsqaUBKTNV-1">
          <mxGeometry x="360" y="240" width="200" height="60" as="geometry" />
        </mxCell>
        <mxCell id="S3Lzj9ECWROEKGPYJ3Kx-9" style="edgeStyle=orthogonalEdgeStyle;rounded=0;orthogonalLoop=1;jettySize=auto;html=1;exitX=0.5;exitY=1;exitDx=0;exitDy=0;entryX=0.5;entryY=0;entryDx=0;entryDy=0;" edge="1" parent="WIyWlLk6GJQsqaUBKTNV-1" source="S3Lzj9ECWROEKGPYJ3Kx-3" target="S3Lzj9ECWROEKGPYJ3Kx-4">
          <mxGeometry relative="1" as="geometry" />
        </mxCell>
        <mxCell id="S3Lzj9ECWROEKGPYJ3Kx-3" value="READ LAST NAME" style="shape=parallelogram;html=1;strokeWidth=2;perimeter=parallelogramPerimeter;whiteSpace=wrap;rounded=1;arcSize=12;size=0.23;" vertex="1" parent="WIyWlLk6GJQsqaUBKTNV-1">
          <mxGeometry x="350" y="320" width="200" height="60" as="geometry" />
        </mxCell>
        <mxCell id="S3Lzj9ECWROEKGPYJ3Kx-4" value="FULLNAME = &quot; FIRST NAME &quot; + &quot;&amp;nbsp; &quot; + &quot;LAST NAME&quot;" style="rounded=1;whiteSpace=wrap;html=1;absoluteArcSize=1;arcSize=14;strokeWidth=2;" vertex="1" parent="WIyWlLk6GJQsqaUBKTNV-1">
          <mxGeometry x="280" y="410" width="350" height="60" as="geometry" />
        </mxCell>
        <mxCell id="S3Lzj9ECWROEKGPYJ3Kx-5" value="PRINT &quot; FULL NAME&quot;" style="shape=parallelogram;html=1;strokeWidth=2;perimeter=parallelogramPerimeter;whiteSpace=wrap;rounded=1;arcSize=12;size=0.23;" vertex="1" parent="WIyWlLk6GJQsqaUBKTNV-1">
          <mxGeometry x="350" y="510" width="200" height="60" as="geometry" />
        </mxCell>
        <mxCell id="S3Lzj9ECWROEKGPYJ3Kx-6" value="END" style="strokeWidth=2;html=1;shape=mxgraph.flowchart.terminator;whiteSpace=wrap;" vertex="1" parent="WIyWlLk6GJQsqaUBKTNV-1">
          <mxGeometry x="390" y="600" width="100" height="60" as="geometry" />
        </mxCell>
        <mxCell id="S3Lzj9ECWROEKGPYJ3Kx-10" style="edgeStyle=orthogonalEdgeStyle;rounded=0;orthogonalLoop=1;jettySize=auto;html=1;exitX=0.5;exitY=1;exitDx=0;exitDy=0;entryX=0.523;entryY=0.167;entryDx=0;entryDy=0;entryPerimeter=0;" edge="1" parent="WIyWlLk6GJQsqaUBKTNV-1" source="S3Lzj9ECWROEKGPYJ3Kx-4" target="S3Lzj9ECWROEKGPYJ3Kx-5">
          <mxGeometry relative="1" as="geometry" />
        </mxCell>
        <mxCell id="S3Lzj9ECWROEKGPYJ3Kx-11" style="edgeStyle=orthogonalEdgeStyle;rounded=0;orthogonalLoop=1;jettySize=auto;html=1;exitX=0.5;exitY=1;exitDx=0;exitDy=0;entryX=0.531;entryY=0.157;entryDx=0;entryDy=0;entryPerimeter=0;" edge="1" parent="WIyWlLk6GJQsqaUBKTNV-1" source="S3Lzj9ECWROEKGPYJ3Kx-5" target="S3Lzj9ECWROEKGPYJ3Kx-6">
          <mxGeometry relative="1" as="geometry" />
        </mxCell>
      </root>
    </mxGraphModel>
  </diagram>
</mxfile>
